<svg width="257" height="109" viewBox="0 0 257 109" fill="none" xmlns="http://www.w3.org/2000/svg">
<path d="M37.6287 54.1954C33.188 53.6412 30.9608 50.3224 30.9412 45.9984C30.9258 42.7933 30.9219 39.5875 30.9296 36.3809C30.9296 36.343 30.9485 36.3241 30.9862 36.3241H37.736C37.7669 36.3241 37.7966 36.3363 37.8184 36.358C37.8403 36.3798 37.8526 36.4093 37.8526 36.44C37.8518 39.1387 37.8503 41.8444 37.848 44.557C37.8457 45.9393 38.2149 47.3748 39.8306 47.5835C41.6112 47.812 42.2102 46.4866 42.3302 44.9258C42.4371 43.5374 42.4387 42.1482 42.3348 40.7583C42.1779 38.6548 41.1704 36.9711 39.9194 35.3465C38.3261 33.2779 36.7251 31.215 35.1164 29.1579C32.8811 26.2972 31.5147 23.2313 31.3497 19.574C31.1454 15.0389 31.037 9.57616 36.215 7.81013C37.0652 7.52024 37.9949 7.34901 39.0043 7.29644C40.7138 7.20676 42.1755 7.24696 43.3896 7.41703C47.5683 8.00378 49.0973 10.9166 49.1227 14.8731C49.1397 17.5053 49.1404 20.1383 49.125 22.7721C49.125 22.81 49.1062 22.8289 49.0685 22.8289L42.5252 22.8498C42.4943 22.8498 42.4647 22.8375 42.4428 22.8155C42.4209 22.7935 42.4087 22.7638 42.4087 22.7327C42.4094 20.6377 42.4113 18.5296 42.4144 16.4084C42.4167 15.1908 42.299 13.6938 40.7665 13.5106C38.9385 13.2926 38.4492 14.5171 38.4088 16.1115C38.3857 17.0029 38.4073 17.8938 38.4735 18.7843C38.6212 20.7591 39.5317 22.3361 40.6984 23.8714C42.4333 26.155 44.1751 28.4332 45.9238 30.7059C47.8452 33.2048 49.2751 35.7107 49.6513 38.9018C49.8832 40.8708 49.8752 43.0473 49.7471 45.1148C49.4574 49.7995 47.214 53.7444 42.1478 54.2279C40.5384 54.3817 39.032 54.3709 37.6287 54.1954Z" fill="#F4F4F4"/>
<path d="M28.8823 48.6126C28.9199 50.328 28.9261 52.0136 28.9007 53.6695C28.8984 53.7785 28.8434 53.833 28.7357 53.833H22.0435C22.0129 53.833 21.9836 53.8208 21.9619 53.799C21.9403 53.7773 21.9281 53.7478 21.9281 53.7171V33.6854C21.9281 33.6547 21.916 33.6252 21.8943 33.6034C21.8727 33.5817 21.8433 33.5694 21.8127 33.5694H17.2832C17.2523 33.5694 17.2227 33.5817 17.2008 33.6034C17.1789 33.6252 17.1667 33.6547 17.1667 33.6854L17.169 53.6881C17.169 53.7847 17.1209 53.833 17.0247 53.833L10.2864 53.8307C10.2387 53.8307 10.2148 53.8067 10.2148 53.7588V7.76892C10.2148 7.73026 10.2341 7.71094 10.2725 7.71094H17.124C17.1353 7.71094 17.1461 7.71546 17.1541 7.7235C17.1622 7.73155 17.1667 7.74246 17.1667 7.75384L17.1724 26.0786C17.1724 26.0915 17.175 26.1044 17.18 26.1163C17.185 26.1283 17.1923 26.1391 17.2015 26.1483C17.2107 26.1574 17.2216 26.1647 17.2337 26.1697C17.2457 26.1746 17.2586 26.1772 17.2717 26.1772H21.8127C21.8433 26.1772 21.8727 26.1649 21.8943 26.1432C21.916 26.1215 21.9281 26.092 21.9281 26.0612V7.78399C21.9281 7.73529 21.952 7.71094 21.9997 7.71094H28.8211C28.8447 7.71094 28.8673 7.72034 28.8839 7.73709C28.9006 7.75383 28.9099 7.77654 28.9099 7.80022C28.9099 21.3464 28.9099 34.903 28.9099 48.47C28.9099 48.4901 28.9061 48.5086 28.8984 48.5256C28.8869 48.5535 28.8815 48.5825 28.8823 48.6126Z" fill="#F4F4F4"/>
<path d="M58.8343 26.4671L65.6627 26.4705C65.6795 26.4705 65.6957 26.4773 65.7076 26.4892C65.7195 26.5012 65.7261 26.5174 65.7261 26.5343L65.7227 33.4477C65.7227 33.4646 65.716 33.4808 65.7041 33.4928C65.6922 33.5047 65.676 33.5115 65.6592 33.5115H58.8343C58.8175 33.5115 58.8014 33.5182 58.7895 33.5301C58.7776 33.5421 58.7709 33.5583 58.7709 33.5752L58.7697 46.7248C58.7697 46.7417 58.7764 46.758 58.7883 46.7699C58.8002 46.7819 58.8164 46.7886 58.8332 46.7886H67.9396C67.9564 46.7886 67.9725 46.7953 67.9844 46.8073C67.9963 46.8192 68.003 46.8355 68.003 46.8524V53.7692C68.003 53.7862 67.9963 53.8024 67.9844 53.8143C67.9725 53.8263 67.9564 53.833 67.9396 53.833H51.8525C51.8357 53.833 51.8196 53.8263 51.8077 53.8143C51.7958 53.8024 51.7891 53.7862 51.7891 53.7692V7.77471C51.7891 7.7578 51.7958 7.74158 51.8077 7.72962C51.8196 7.71766 51.8357 7.71094 51.8525 7.71094H67.5934C67.6102 7.71094 67.6263 7.71766 67.6382 7.72962C67.6501 7.74158 67.6568 7.7578 67.6568 7.77471V14.3437C67.6568 14.3606 67.6501 14.3768 67.6382 14.3888C67.6263 14.4008 67.6102 14.4075 67.5934 14.4075H58.8343C58.8175 14.4075 58.8014 14.4142 58.7895 14.4262C58.7776 14.4381 58.7709 14.4543 58.7709 14.4713V26.4033C58.7709 26.4117 58.7725 26.4199 58.7757 26.4277C58.7789 26.4354 58.7836 26.4425 58.7895 26.4484C58.7954 26.4543 58.8024 26.459 58.8101 26.4622C58.8178 26.4654 58.826 26.4671 58.8343 26.4671Z" fill="#F4F4F4"/>
<path d="M81.7494 45.2498L80.8423 53.7484C80.8397 53.7717 80.8287 53.7933 80.8112 53.8089C80.7937 53.8246 80.7711 53.8332 80.7477 53.833H74.6891C74.6756 53.8331 74.6623 53.8303 74.65 53.8248C74.6377 53.8194 74.6267 53.8113 74.6177 53.8012C74.6088 53.7911 74.6021 53.7792 74.5981 53.7663C74.594 53.7534 74.5928 53.7398 74.5945 53.7263L80.1891 7.79443C80.192 7.77127 80.2032 7.74997 80.2206 7.73457C80.2381 7.71918 80.2605 7.71077 80.2838 7.71094H88.4C88.4228 7.71101 88.4449 7.71939 88.4621 7.73452C88.4792 7.74965 88.4904 7.77052 88.4935 7.79327L94.4528 53.7252C94.4546 53.7386 94.4536 53.7522 94.4497 53.7652C94.4458 53.7782 94.4392 53.7902 94.4304 53.8004C94.4215 53.8106 94.4106 53.8188 94.3984 53.8244C94.3861 53.83 94.3728 53.833 94.3593 53.833H87.8103C87.7869 53.8332 87.7643 53.8246 87.7468 53.8089C87.7293 53.7933 87.7182 53.7717 87.7156 53.7484L86.8086 45.2475C86.806 45.2242 86.7949 45.2026 86.7775 45.1869C86.76 45.1713 86.7374 45.1627 86.714 45.1629L81.844 45.1652C81.8206 45.1651 81.798 45.1736 81.7805 45.1893C81.763 45.2049 81.7519 45.2265 81.7494 45.2498ZM82.451 38.1962C82.4505 38.2013 82.4511 38.2065 82.4528 38.2114C82.4544 38.2163 82.457 38.2208 82.4605 38.2247C82.464 38.2285 82.4682 38.2315 82.473 38.2336C82.4777 38.2357 82.4828 38.2368 82.4879 38.2367L86.01 38.2391C86.0152 38.2391 86.0203 38.238 86.025 38.2359C86.0297 38.2339 86.0339 38.2308 86.0374 38.227C86.0409 38.2232 86.0435 38.2187 86.0452 38.2137C86.0468 38.2088 86.0474 38.2036 86.0469 38.1985L84.2524 21.6293C84.2509 21.6207 84.2464 21.613 84.2398 21.6074C84.2331 21.6018 84.2248 21.5987 84.2161 21.5987C84.2074 21.5987 84.199 21.6018 84.1924 21.6074C84.1857 21.613 84.1813 21.6207 84.1797 21.6293L82.451 38.1962Z" fill="#F4F4F4"/>
<path d="M102.609 33.266C102.561 33.2683 102.537 33.2939 102.537 33.3426V53.7024C102.537 53.7368 102.523 53.7698 102.499 53.7942C102.474 53.8186 102.442 53.8322 102.407 53.8322L95.6701 53.8346C95.6395 53.8346 95.6101 53.8222 95.5885 53.8003C95.5668 53.7783 95.5547 53.7485 95.5547 53.7174V7.82496C95.5547 7.79482 95.5666 7.76592 95.5878 7.74461C95.609 7.7233 95.6378 7.71132 95.6678 7.71132C99.5207 7.71055 103.387 7.71094 107.268 7.71248C112.206 7.7148 113.881 10.6659 113.835 15.2068C113.809 17.926 113.839 20.6452 113.806 23.3644C113.777 25.6534 112.995 27.8137 110.889 28.8747C110.884 28.8773 110.88 28.8813 110.877 28.8861C110.874 28.8909 110.873 28.8965 110.873 28.902C110.873 28.9076 110.874 28.913 110.877 28.9176C110.88 28.9222 110.884 28.9258 110.889 28.9281C112.715 29.7591 113.679 31.1989 113.781 33.2475C113.803 33.6742 113.815 34.1028 113.817 34.5334C113.839 38.6306 113.847 42.7278 113.844 46.8249C113.841 49.0687 113.556 51.425 114.526 53.5342C114.54 53.5663 114.547 53.6017 114.544 53.6369C114.542 53.6722 114.531 53.7063 114.512 53.7361C114.493 53.7658 114.467 53.7904 114.436 53.8074C114.405 53.8244 114.37 53.8333 114.335 53.8334H107.725C107.674 53.8333 107.624 53.8184 107.581 53.7904C107.538 53.7624 107.504 53.7226 107.484 53.6757C107.139 52.8926 106.962 52.0488 106.952 51.1443C106.896 45.9819 106.878 40.8195 106.9 35.6571C106.906 34.1717 106.337 33.3959 104.857 33.2892C104.099 33.2351 103.35 33.2274 102.609 33.266ZM104.958 26.6066C106.783 26.3944 106.963 24.328 106.923 22.9099C106.865 20.8841 106.893 18.8548 106.894 16.8279C106.894 15.4295 106.607 14.133 104.995 14.0217C104.2 13.9661 103.414 13.9529 102.637 13.9823C102.61 13.9832 102.584 13.9946 102.566 14.0141C102.547 14.0335 102.536 14.0596 102.537 14.0867V26.5544C102.536 26.5716 102.54 26.5885 102.547 26.6043C102.553 26.62 102.563 26.6342 102.576 26.646C102.588 26.6577 102.603 26.6667 102.619 26.6725C102.635 26.6783 102.652 26.6808 102.669 26.6796C103.448 26.6263 104.212 26.6936 104.958 26.6066Z" fill="#F4F4F4"/>
<path d="M127.787 53.833H121.077C121.063 53.833 121.049 53.8302 121.036 53.8248C121.023 53.8194 121.011 53.8114 121.001 53.8014C120.991 53.7914 120.983 53.7795 120.978 53.7664C120.973 53.7534 120.97 53.7393 120.97 53.7252V14.5153C120.97 14.4867 120.959 14.4593 120.938 14.4391C120.918 14.4188 120.891 14.4075 120.863 14.4075H115.221C115.192 14.4075 115.165 14.3961 115.145 14.3759C115.125 14.3557 115.113 14.3282 115.113 14.2996V7.81878C115.113 7.80462 115.116 7.79059 115.121 7.77751C115.127 7.76443 115.135 7.75254 115.145 7.74252C115.155 7.73251 115.167 7.72457 115.18 7.71915C115.193 7.71373 115.207 7.71094 115.221 7.71094H133.643C133.657 7.71094 133.671 7.71373 133.684 7.71915C133.697 7.72457 133.709 7.73251 133.719 7.74252C133.729 7.75254 133.737 7.76443 133.743 7.77751C133.748 7.79059 133.751 7.80462 133.751 7.81878V14.2996C133.751 14.3282 133.739 14.3557 133.719 14.3759C133.699 14.3961 133.672 14.4075 133.643 14.4075H128.001C127.987 14.4075 127.973 14.4103 127.96 14.4157C127.947 14.4211 127.935 14.4291 127.925 14.4391C127.916 14.4491 127.908 14.461 127.902 14.4741C127.897 14.4871 127.894 14.5012 127.894 14.5153V53.7252C127.894 53.7538 127.883 53.7812 127.863 53.8014C127.842 53.8216 127.815 53.833 127.787 53.833Z" fill="#F4F4F4"/>
<path d="M152.414 45.1617L147.506 45.164C147.488 45.1642 147.47 45.1712 147.457 45.1836C147.443 45.196 147.434 45.2129 147.432 45.2313L146.522 53.7658C146.52 53.7841 146.511 53.8011 146.498 53.8135C146.484 53.8259 146.466 53.8328 146.448 53.833H140.348C140.337 53.8329 140.327 53.8306 140.317 53.8262C140.308 53.8217 140.299 53.8153 140.292 53.8073C140.285 53.7993 140.28 53.79 140.277 53.7798C140.274 53.7696 140.273 53.7589 140.274 53.7484L145.872 7.77704C145.874 7.75869 145.883 7.74183 145.897 7.72964C145.911 7.71745 145.929 7.7108 145.947 7.71094H154.1C154.118 7.71108 154.136 7.71786 154.15 7.73002C154.163 7.74218 154.172 7.75889 154.174 7.77704L160.138 53.7495C160.139 53.7601 160.138 53.7708 160.135 53.7809C160.132 53.7911 160.127 53.8005 160.12 53.8085C160.113 53.8165 160.105 53.8229 160.095 53.8273C160.085 53.8318 160.075 53.8341 160.064 53.8342L153.473 53.8295C153.454 53.8294 153.436 53.8224 153.423 53.81C153.409 53.7976 153.401 53.7806 153.399 53.7623L152.488 45.229C152.486 45.2106 152.478 45.1936 152.464 45.1812C152.45 45.1688 152.433 45.1619 152.414 45.1617ZM151.673 38.2367C151.681 38.2368 151.689 38.2352 151.696 38.232C151.703 38.2289 151.71 38.2242 151.715 38.2184C151.72 38.2126 151.724 38.2058 151.726 38.1984C151.729 38.1909 151.73 38.1831 151.729 38.1753L149.944 21.7105C149.914 21.4337 149.884 21.4341 149.855 21.7116L148.129 38.2008C148.129 38.2057 148.129 38.2107 148.131 38.2155C148.132 38.2203 148.135 38.2247 148.138 38.2284C148.141 38.2321 148.146 38.2351 148.15 38.2372C148.155 38.2392 148.16 38.2402 148.165 38.2402L151.673 38.2367Z" fill="#F4F4F4"/>
<path d="M167.579 27.5744C167.551 27.845 167.537 28.087 167.537 28.3003C167.535 36.7931 167.535 45.2842 167.535 53.7739C167.535 53.7902 167.529 53.8058 167.518 53.8173C167.507 53.8289 167.491 53.8353 167.475 53.8353L161.413 53.8284C161.302 53.8284 161.246 53.7723 161.246 53.6602V7.76892C161.246 7.75354 161.252 7.73879 161.263 7.72792C161.274 7.71705 161.288 7.71094 161.304 7.71094H167.523C167.544 7.71094 167.556 7.72099 167.561 7.74109L173.436 32.0214C173.485 32.2263 173.51 32.2232 173.51 32.0121L173.506 7.75848C173.506 7.74587 173.511 7.73378 173.52 7.72486C173.529 7.71595 173.541 7.71094 173.554 7.71094H179.826C179.841 7.71094 179.856 7.71705 179.867 7.72792C179.877 7.73879 179.883 7.75354 179.883 7.76892V53.6834C179.883 53.7028 179.88 53.7219 179.872 53.7398C179.865 53.7576 179.854 53.7739 179.841 53.7876C179.827 53.8012 179.811 53.8121 179.793 53.8195C179.775 53.8269 179.756 53.8307 179.737 53.8307L174.287 53.8342C174.261 53.8341 174.236 53.8255 174.215 53.8095C174.195 53.7935 174.181 53.7712 174.175 53.746L167.602 27.5721C167.592 27.5304 167.584 27.5312 167.579 27.5744Z" fill="#F4F4F4"/>
<path d="M182.664 53.8222C182.608 53.8215 182.554 53.7987 182.515 53.7585C182.475 53.7183 182.453 53.6641 182.453 53.6076V7.82763C182.453 7.79749 182.465 7.76859 182.486 7.74728C182.507 7.72596 182.535 7.71399 182.565 7.71399C186.178 7.71245 189.805 7.71013 193.445 7.70703C197.37 7.70471 199.916 9.51133 200.703 13.3843C200.882 14.2695 200.972 15.1063 200.973 15.8948C200.976 25.6816 200.969 35.468 200.953 45.2541C200.944 50.4084 198.579 53.8048 193.164 53.8337C189.712 53.8523 186.212 53.8484 182.664 53.8222ZM193.796 17.4022C193.793 15.9493 193.614 14.0986 191.713 14.0047C190.974 13.9683 190.242 13.9606 189.515 13.9815C189.501 13.9818 189.488 13.9874 189.479 13.9972C189.469 14.0069 189.464 14.02 189.464 14.0337V47.0247C189.464 47.0688 189.486 47.092 189.53 47.0943C190.174 47.1299 190.817 47.1291 191.461 47.092C193.637 46.9679 193.812 45.1068 193.813 43.3987C193.819 34.7336 193.814 26.0681 193.796 17.4022Z" fill="#F4F4F4"/>
<path d="M50.2901 98.4927C49.0865 96.9099 48.6503 94.8563 48.6456 92.9082C48.6379 89.7472 48.6391 86.5862 48.6491 83.4252C48.6491 83.3912 48.6656 83.3742 48.6987 83.3742L55.482 83.3754C55.5205 83.3754 55.5398 83.3951 55.5398 83.4345C55.539 85.7081 55.5401 87.9797 55.5432 90.2493C55.5444 91.8739 55.3551 94.5235 57.6816 94.6302C59.2315 94.7009 59.8869 93.6643 60.0081 92.245C60.1454 90.6447 60.1789 88.7001 59.9873 87.2913C59.73 85.4093 58.7987 83.9343 57.6274 82.406C56.0171 80.3064 54.4003 78.2118 52.777 76.1222C50.6652 73.4019 49.3981 70.6432 49.1061 67.1761C48.6122 61.3203 48.9953 54.8475 56.4999 54.3593C62.2919 53.9825 66.7522 54.9322 66.8272 61.9059C66.8557 64.4909 66.8607 67.1266 66.8422 69.813C66.8422 69.8271 66.8366 69.8407 66.8267 69.8507C66.8167 69.8607 66.8032 69.8663 66.7891 69.8663H60.157C60.1414 69.8663 60.1264 69.8601 60.1154 69.849C60.1043 69.8379 60.0981 69.8229 60.0981 69.8072C60.0981 67.5839 60.0974 65.3521 60.0958 63.1118C60.0947 61.6681 59.6873 60.41 57.9574 60.5341C56.9819 60.6052 56.4114 61.1108 56.246 62.0508C56.0279 63.2857 56.0487 64.85 56.1768 66.0154C56.3995 68.0446 57.4427 69.6692 58.6579 71.2648C60.7067 73.955 62.1165 75.7918 62.8874 76.7751C64.6276 78.9957 66.204 81.1768 66.9634 83.8983C67.5681 86.0633 67.5485 88.3627 67.4965 90.7097C67.4688 91.9883 67.3969 92.991 67.2807 93.7176C66.6091 97.9176 64.1303 100.862 59.7623 101.283C56.4607 101.6 52.5058 101.409 50.2901 98.4927Z" fill="#F4F4F4"/>
<path d="M92.329 96.4253C92.3279 96.4199 92.325 96.4151 92.3209 96.4115C92.3167 96.408 92.3115 96.4059 92.3059 96.4057C92.3003 96.4054 92.2948 96.407 92.29 96.4101C92.2852 96.4132 92.2815 96.4177 92.2794 96.423C91.2858 98.8987 89.1336 101.135 86.4078 101.437C82.0467 101.919 79.5044 98.6122 78.9528 94.6767C78.8859 94.2012 78.8524 93.4804 78.8524 92.514C78.8493 82.9731 78.8547 73.4321 78.8686 63.8911C78.8743 60.2964 80.0595 56.3829 83.7327 54.9404C85.6138 54.2017 87.728 54.2295 89.7775 54.3397C95.4206 54.6435 97.0132 58.4214 97.0813 63.4354C97.1067 65.3015 97.1194 67.2396 97.1194 69.2495C97.1194 69.2809 97.107 69.311 97.0849 69.3331C97.0628 69.3553 97.0329 69.3678 97.0017 69.3678L90.4168 69.3747C90.3865 69.3747 90.3575 69.3626 90.336 69.3411C90.3146 69.3196 90.3026 69.2904 90.3026 69.2599C90.3064 67.3327 90.3049 65.4005 90.298 63.4632C90.2922 61.914 89.3609 60.751 87.7049 61.0525C86.0754 61.3493 85.9496 63.1432 85.9496 64.4686C85.9458 73.3494 85.9427 82.2306 85.9404 91.1121C85.9392 92.6103 86.4505 94.3844 88.2542 94.3728C90.313 94.3612 90.793 92.8573 90.793 91.133C90.7915 87.4146 90.7938 83.7048 90.8 80.0034C90.8 79.9913 90.7976 79.9793 90.7929 79.9681C90.7883 79.9569 90.7814 79.9467 90.7728 79.9382C90.7643 79.9297 90.7541 79.923 90.7429 79.9184C90.7317 79.9139 90.7197 79.9116 90.7076 79.9118L87.7684 79.9269C87.7528 79.927 87.7374 79.9241 87.7229 79.9182C87.7085 79.9123 87.6954 79.9036 87.6844 79.8926C87.6733 79.8816 87.6645 79.8685 87.6586 79.8541C87.6526 79.8397 87.6495 79.8242 87.6495 79.8086V72.9358C87.6495 72.905 87.6616 72.8755 87.6833 72.8538C87.7049 72.8321 87.7343 72.8198 87.7649 72.8198H97.3282C97.3552 72.8198 97.381 72.8305 97.4001 72.8494C97.4191 72.8683 97.4298 72.894 97.4298 72.9207V100.795C97.4298 100.833 97.4106 100.853 97.3721 100.853H93.5373C93.5196 100.852 93.5025 100.847 93.4885 100.836C93.4745 100.825 93.4645 100.81 93.46 100.793L92.329 96.4253Z" fill="#F4F4F4"/>
<path d="M145.568 86.818C146.067 93.0426 145.435 101.121 137.146 101.334C135.695 101.371 134.219 101.393 132.789 101.11C128.2 100.205 126.783 96.5468 126.771 92.312C126.764 89.3513 126.764 86.3905 126.77 83.4297C126.771 83.3918 126.79 83.3729 126.828 83.3729H133.633C133.649 83.3729 133.663 83.3791 133.675 83.3902C133.686 83.4013 133.692 83.4163 133.692 83.432C133.692 86.1964 133.692 88.9694 133.692 91.7508C133.692 93.4763 134.414 94.7622 136.314 94.5906C137.726 94.4619 138.089 93.1585 138.177 91.9456C138.278 90.5665 138.279 89.1866 138.18 87.8059C138.03 85.7361 137.066 84.0814 135.826 82.4731C134.147 80.2961 132.464 78.1223 130.778 75.9516C128.459 72.9692 127.225 69.7247 127.167 65.9271C127.131 63.5894 127.03 61.8199 127.533 59.8324C128.901 54.4334 134.073 53.9858 138.654 54.3824C143.437 54.7963 144.957 57.8762 144.969 62.3278C144.975 64.8209 144.975 67.3139 144.97 69.807C144.97 69.8221 144.964 69.8365 144.953 69.8472C144.943 69.8579 144.928 69.8638 144.913 69.8638H138.309C138.293 69.8638 138.278 69.8575 138.267 69.8462C138.255 69.8349 138.249 69.8195 138.249 69.8035C138.251 67.6869 138.252 65.5618 138.254 63.4282C138.255 62.2246 138.143 60.7391 136.626 60.549C134.966 60.3403 134.38 61.2888 134.286 62.7696C134.231 63.6261 134.22 64.4838 134.251 65.3427C134.335 67.5795 135.337 69.3409 136.656 71.064C138.533 73.5153 140.409 75.9675 142.285 78.4203C144.216 80.9471 145.306 83.5631 145.568 86.818Z" fill="#F4F4F4"/>
<path d="M155.793 101.403C151.967 101.388 148.9 99.5653 147.921 95.6911C147.526 94.1269 147.43 92.8641 147.43 91.0783C147.425 81.8914 147.425 72.7045 147.428 63.5176C147.43 58.7193 149.561 54.7547 154.808 54.3709C158.685 54.0868 163.225 54.2456 165.025 58.4155C165.762 60.1258 165.882 62.1238 165.887 63.9895C165.892 66.6937 165.893 69.397 165.888 72.0996C165.888 72.1147 165.882 72.1291 165.872 72.1398C165.861 72.1504 165.847 72.1564 165.832 72.1564H159.083C159.07 72.1563 159.057 72.152 159.047 72.144C159.037 72.136 159.03 72.1249 159.026 72.1123C158.958 71.8375 159.021 71.5128 159.022 71.3169C159.027 68.9297 159.026 66.5425 159.019 64.1553C159.014 62.147 158.304 60.5247 155.909 61.1173C154.882 61.3712 154.554 62.4809 154.553 63.4086C154.551 72.8375 154.55 82.2664 154.551 91.6952C154.551 93.0183 154.971 94.3901 156.504 94.5663C158.268 94.7693 159.042 93.263 159.014 91.7463C158.947 88.14 159.03 84.5024 159.023 80.8242C159.023 80.8089 159.029 80.7941 159.04 80.7832C159.051 80.7724 159.065 80.7662 159.081 80.7662H165.833C165.848 80.7662 165.863 80.7725 165.874 80.7836C165.885 80.7947 165.892 80.8097 165.892 80.8254C165.891 84.4015 165.888 87.9861 165.885 91.5793C165.88 96.904 163.791 101.378 157.727 101.403C157.081 101.406 156.437 101.406 155.793 101.403Z" fill="#F4F4F4"/>
<path d="M194.403 100.785C189.842 99.1508 189.182 94.1402 189.179 89.9762C189.17 76.7911 189.17 68.3671 189.177 64.7044C189.185 60.5184 190.388 56.0575 194.888 54.7344C196.611 54.2277 198.578 54.2288 200.377 54.3436C207.049 54.7727 208.269 59.956 208.272 65.5277C208.277 73.7762 208.277 82.0246 208.273 90.2731C208.271 95.846 206.76 101.166 200.045 101.392C198.155 101.456 196.255 101.449 194.403 100.785ZM196.299 90.2081C196.303 91.8605 196.25 94.5009 198.638 94.5867C200.695 94.6597 201.151 92.8427 201.151 91.2007C201.151 82.197 201.147 73.1933 201.137 64.1896C201.136 62.9813 200.766 61.4623 199.451 61.1109C198.635 60.8929 197.921 61.0058 197.308 61.4495C196.21 62.2415 196.305 64.0284 196.301 65.2042C196.279 73.5392 196.278 81.8739 196.299 90.2081Z" fill="#F4F4F4"/>
<path d="M213.401 99.411C210.859 97.1371 210.469 93.4578 210.467 90.2736C210.464 81.634 210.464 72.9948 210.466 64.3559C210.467 59.444 212.43 54.9367 217.91 54.4021C220.042 54.1934 222.31 54.1865 224.304 54.8567C228.774 56.3595 229.532 60.985 229.533 65.0783C229.536 73.6793 229.536 82.2802 229.534 90.8812C229.533 96.5898 227.435 101.375 220.909 101.404C218.154 101.416 215.588 101.368 213.401 99.411ZM219.136 94.3994C220.254 94.8539 221.635 94.4654 222.087 93.256C222.308 92.6662 222.418 92.0292 222.418 91.345C222.414 82.4001 222.41 73.4555 222.407 64.5113C222.407 63.5906 222.317 62.7267 221.919 62.0148C221.229 60.7844 219.215 60.6789 218.306 61.6912C217.681 62.3881 217.566 63.5837 217.566 64.5299C217.561 73.4369 217.567 82.344 217.582 91.2511C217.584 92.4988 217.831 93.8694 219.136 94.3994Z" fill="#F4F4F4"/>
<path d="M21.2826 100.831C17.6051 100.86 13.9311 100.865 10.2606 100.846C10.2474 100.846 10.2348 100.841 10.2255 100.831C10.2162 100.822 10.2109 100.809 10.2109 100.796V54.7901C10.2109 54.7763 10.2164 54.763 10.2261 54.7532C10.2359 54.7434 10.2491 54.7379 10.2629 54.7379C14.0757 54.7178 17.8955 54.7244 21.7223 54.7576C22.4193 54.7638 23.1494 54.8817 23.9126 55.1113C27.9678 56.3347 28.6995 59.9189 28.7006 63.6666C28.7052 73.2594 28.706 82.8526 28.7029 92.4461C28.7029 92.8311 28.6591 93.3823 28.5714 94.0997C28.0601 98.2672 25.564 100.797 21.2826 100.831ZM21.5365 64.4204C21.5342 62.877 21.3057 61.0309 19.2965 61.0263C18.2948 61.024 17.6082 61.0217 17.2366 61.0193C17.1904 61.0193 17.1674 61.0425 17.1674 61.0889L17.1639 94.0394C17.1639 94.085 17.1866 94.1086 17.232 94.1101C19.0484 94.182 20.9929 94.3988 21.4095 92.2119C21.5019 91.7249 21.548 91.2328 21.548 90.7358C21.5503 81.964 21.5465 73.1922 21.5365 64.4204Z" fill="#F4F4F4"/>
<path d="M31.1562 100.776V54.807C31.1562 54.7867 31.1643 54.7672 31.1786 54.7529C31.1928 54.7385 31.2122 54.7305 31.2324 54.7305H46.9478C46.968 54.7305 46.9874 54.7385 47.0017 54.7529C47.016 54.7672 47.024 54.7867 47.024 54.807V61.3505C47.024 61.3708 47.016 61.3902 47.0017 61.4046C46.9874 61.4189 46.968 61.427 46.9478 61.427H38.2142C38.2042 61.427 38.1943 61.429 38.1851 61.4328C38.1758 61.4367 38.1674 61.4423 38.1604 61.4494C38.1533 61.4565 38.1477 61.465 38.1439 61.4743C38.14 61.4835 38.1381 61.4935 38.1381 61.5035V73.4147C38.1381 73.4247 38.14 73.4347 38.1439 73.444C38.1477 73.4533 38.1533 73.4617 38.1604 73.4688C38.1674 73.4759 38.1758 73.4816 38.1851 73.4854C38.1943 73.4892 38.2042 73.4912 38.2142 73.4912L45.0437 73.4843C45.0639 73.4843 45.0833 73.4923 45.0976 73.5067C45.1119 73.521 45.1199 73.5405 45.1199 73.5608V80.4545C45.1199 80.4748 45.1119 80.4942 45.0976 80.5086C45.0833 80.5229 45.0639 80.531 45.0437 80.531H38.2142C38.2042 80.531 38.1943 80.533 38.1851 80.5368C38.1758 80.5407 38.1674 80.5463 38.1604 80.5534C38.1533 80.5605 38.1477 80.569 38.1439 80.5782C38.14 80.5875 38.1381 80.5975 38.1381 80.6075V93.7606C38.1381 93.7809 38.1461 93.8004 38.1604 93.8147C38.1747 93.8291 38.194 93.8371 38.2142 93.8371H47.3229C47.3431 93.8371 47.3625 93.8452 47.3768 93.8595C47.391 93.8739 47.3991 93.8933 47.3991 93.9136V100.776C47.3991 100.796 47.391 100.816 47.3768 100.83C47.3625 100.844 47.3431 100.853 47.3229 100.853H31.2324C31.2122 100.853 31.1928 100.844 31.1786 100.83C31.1643 100.816 31.1562 100.796 31.1562 100.776Z" fill="#F4F4F4"/>
<path d="M76.3887 54.7344H69.5384C69.5021 54.7344 69.4727 54.764 69.4727 54.8005V100.789C69.4727 100.826 69.5021 100.855 69.5384 100.855H76.3887C76.425 100.855 76.4545 100.826 76.4545 100.789V54.8005C76.4545 54.764 76.425 54.7344 76.3887 54.7344Z" fill="#F4F4F4"/>
<path d="M112.082 79.0839V54.7908C112.082 54.7763 112.088 54.7624 112.098 54.7522C112.108 54.742 112.122 54.7363 112.137 54.7363L118.372 54.7328C118.395 54.7328 118.417 54.7418 118.433 54.7579C118.449 54.774 118.458 54.7958 118.458 54.8186V100.795C118.458 100.81 118.452 100.825 118.441 100.836C118.43 100.846 118.415 100.853 118.4 100.853H112.83C112.81 100.853 112.792 100.846 112.777 100.834C112.762 100.822 112.751 100.805 112.746 100.786L106.156 74.5383C106.154 74.5293 106.148 74.5214 106.14 74.5161C106.133 74.5108 106.124 74.5086 106.114 74.5097C106.105 74.5108 106.097 74.5153 106.09 74.5223C106.084 74.5293 106.081 74.5383 106.081 74.5476C106.082 74.5654 106.084 74.5816 106.087 74.5963C106.093 74.6221 106.099 74.6461 106.103 74.6653C106.107 74.6845 106.109 74.698 106.11 74.7041V100.795C106.11 100.81 106.104 100.825 106.093 100.836C106.082 100.846 106.067 100.853 106.052 100.853H99.9357C99.9051 100.853 99.8758 100.84 99.8541 100.819C99.8325 100.797 99.8203 100.767 99.8203 100.737V54.7884C99.8203 54.7731 99.8264 54.7583 99.8372 54.7475C99.848 54.7366 99.8627 54.7305 99.878 54.7305H106.083C106.094 54.7305 106.105 54.7343 106.113 54.7412C106.122 54.7481 106.128 54.7578 106.13 54.7687L112.015 79.092C112.015 79.0964 112.017 79.1007 112.019 79.1045C112.021 79.1084 112.024 79.1118 112.027 79.1146C112.031 79.1173 112.035 79.1193 112.039 79.1205C112.043 79.1217 112.048 79.1221 112.052 79.1215C112.057 79.121 112.061 79.1196 112.065 79.1174C112.069 79.1152 112.072 79.1123 112.075 79.1088C112.078 79.1053 112.08 79.1013 112.081 79.097C112.082 79.0927 112.082 79.0883 112.082 79.0839Z" fill="#F4F4F4"/>
<path d="M175.068 80.6736L175.062 100.768C175.062 100.779 175.059 100.79 175.055 100.8C175.051 100.811 175.045 100.82 175.037 100.828C175.029 100.836 175.02 100.842 175.01 100.846C174.999 100.85 174.988 100.853 174.977 100.853H168.166C168.144 100.853 168.123 100.844 168.107 100.828C168.091 100.812 168.082 100.79 168.082 100.768V54.8174C168.082 54.795 168.091 54.7735 168.107 54.7576C168.123 54.7417 168.144 54.7328 168.166 54.7328L174.981 54.7386C175.003 54.7386 175.025 54.7475 175.04 54.7634C175.056 54.7793 175.065 54.8008 175.065 54.8232L175.063 73.112C175.063 73.1345 175.072 73.156 175.087 73.1719C175.103 73.1878 175.125 73.1967 175.147 73.1967H179.711C179.733 73.1967 179.755 73.1878 179.771 73.1719C179.786 73.156 179.795 73.1345 179.795 73.112V54.8151C179.795 54.7927 179.804 54.7711 179.82 54.7553C179.836 54.7394 179.857 54.7305 179.88 54.7305H186.722C186.744 54.7305 186.766 54.7394 186.781 54.7553C186.797 54.7711 186.806 54.7927 186.806 54.8151V100.768C186.806 100.79 186.797 100.812 186.781 100.828C186.766 100.844 186.744 100.853 186.722 100.853H179.88C179.857 100.853 179.836 100.844 179.82 100.828C179.804 100.812 179.795 100.79 179.795 100.768V80.6736C179.795 80.6512 179.786 80.6296 179.771 80.6138C179.755 80.5979 179.733 80.589 179.711 80.589H175.153C175.13 80.589 175.109 80.5979 175.093 80.6138C175.077 80.6296 175.068 80.6512 175.068 80.6736Z" fill="#F4F4F4"/>
<path d="M238.993 93.7212H247.34C247.362 93.7212 247.383 93.7298 247.398 93.7453C247.414 93.7607 247.422 93.7817 247.422 93.8035V100.77C247.422 100.792 247.414 100.813 247.398 100.828C247.383 100.844 247.362 100.853 247.34 100.853H232.012C231.99 100.853 231.969 100.844 231.954 100.828C231.938 100.813 231.93 100.792 231.93 100.77V54.8128C231.93 54.791 231.938 54.77 231.954 54.7546C231.969 54.7391 231.99 54.7305 232.012 54.7305H238.83C238.851 54.7305 238.872 54.7391 238.887 54.7546C238.903 54.77 238.912 54.791 238.912 54.8128V93.6388C238.912 93.6607 238.92 93.6816 238.936 93.697C238.951 93.7125 238.972 93.7212 238.993 93.7212Z" fill="#F4F4F4"/>
</svg>
